<mxfile host="app.diagrams.net" agent="Mozilla/5.0 (Macintosh; Intel Mac OS X 10_15_7) AppleWebKit/537.36 (KHTML, like Gecko) Chrome/141.0.0.0 Safari/537.36" version="28.2.8">
  <diagram name="Page-1" id="MTE-25TMW-IJNMn8FTlO">
    <mxGraphModel dx="2043" dy="1952" grid="1" gridSize="10" guides="1" tooltips="1" connect="1" arrows="1" fold="1" page="1" pageScale="1" pageWidth="827" pageHeight="1169" math="0" shadow="0">
      <root>
        <mxCell id="0" />
        <mxCell id="1" parent="0" />
        <mxCell id="8SyGIkeXO50UrZGaKce9-1" value="Membre" style="swimlane;fontStyle=1;align=center;verticalAlign=top;childLayout=stackLayout;horizontal=1;startSize=26;horizontalStack=0;resizeParent=1;resizeParentMax=0;resizeLast=0;collapsible=1;marginBottom=0;whiteSpace=wrap;html=1;" parent="1" vertex="1">
          <mxGeometry x="360" y="20" width="180" height="210" as="geometry" />
        </mxCell>
        <mxCell id="8SyGIkeXO50UrZGaKce9-2" value="+ nom: String&lt;div&gt;+ prénom: String&lt;br&gt;&lt;div&gt;+ dateDeNaissance: Date&lt;/div&gt;&lt;div&gt;+ email: String&lt;/div&gt;&lt;div&gt;+ role : String&lt;/div&gt;&lt;div&gt;&lt;br&gt;&lt;/div&gt;&lt;/div&gt;" style="text;strokeColor=none;fillColor=none;align=left;verticalAlign=top;spacingLeft=4;spacingRight=4;overflow=hidden;rotatable=0;points=[[0,0.5],[1,0.5]];portConstraint=eastwest;whiteSpace=wrap;html=1;" parent="8SyGIkeXO50UrZGaKce9-1" vertex="1">
          <mxGeometry y="26" width="180" height="94" as="geometry" />
        </mxCell>
        <mxCell id="8SyGIkeXO50UrZGaKce9-3" value="" style="line;strokeWidth=1;fillColor=none;align=left;verticalAlign=middle;spacingTop=-1;spacingLeft=3;spacingRight=3;rotatable=0;labelPosition=right;points=[];portConstraint=eastwest;strokeColor=inherit;" parent="8SyGIkeXO50UrZGaKce9-1" vertex="1">
          <mxGeometry y="120" width="180" height="30" as="geometry" />
        </mxCell>
        <mxCell id="8SyGIkeXO50UrZGaKce9-4" value="&lt;div&gt;&lt;div&gt;+ seConnecter()&lt;/div&gt;&lt;div&gt;+ postulerSpectacle(spectacle)&lt;/div&gt;&lt;/div&gt;&lt;div&gt;+ participerAtelier(atelier)&lt;/div&gt;&lt;div&gt;&lt;br&gt;&lt;/div&gt;" style="text;strokeColor=none;fillColor=none;align=left;verticalAlign=top;spacingLeft=4;spacingRight=4;overflow=hidden;rotatable=0;points=[[0,0.5],[1,0.5]];portConstraint=eastwest;whiteSpace=wrap;html=1;" parent="8SyGIkeXO50UrZGaKce9-1" vertex="1">
          <mxGeometry y="150" width="180" height="60" as="geometry" />
        </mxCell>
        <mxCell id="8SyGIkeXO50UrZGaKce9-5" value="Responsable pédagogique" style="swimlane;fontStyle=1;align=center;verticalAlign=top;childLayout=stackLayout;horizontal=1;startSize=26;horizontalStack=0;resizeParent=1;resizeParentMax=0;resizeLast=0;collapsible=1;marginBottom=0;whiteSpace=wrap;html=1;" parent="1" vertex="1">
          <mxGeometry x="530" y="560" width="160" height="140" as="geometry" />
        </mxCell>
        <mxCell id="8SyGIkeXO50UrZGaKce9-6" value="&lt;div&gt;&lt;div&gt;+ role: resped&lt;/div&gt;&lt;/div&gt;" style="text;strokeColor=none;fillColor=none;align=left;verticalAlign=top;spacingLeft=4;spacingRight=4;overflow=hidden;rotatable=0;points=[[0,0.5],[1,0.5]];portConstraint=eastwest;whiteSpace=wrap;html=1;" parent="8SyGIkeXO50UrZGaKce9-5" vertex="1">
          <mxGeometry y="26" width="160" height="24" as="geometry" />
        </mxCell>
        <mxCell id="8SyGIkeXO50UrZGaKce9-7" value="" style="line;strokeWidth=1;fillColor=none;align=left;verticalAlign=middle;spacingTop=-1;spacingLeft=3;spacingRight=3;rotatable=0;labelPosition=right;points=[];portConstraint=eastwest;strokeColor=inherit;" parent="8SyGIkeXO50UrZGaKce9-5" vertex="1">
          <mxGeometry y="50" width="160" height="20" as="geometry" />
        </mxCell>
        <mxCell id="8SyGIkeXO50UrZGaKce9-8" value="&lt;div&gt;+ seConnecter()&lt;/div&gt;+ crudAtelier()&lt;div&gt;+ crudSpectacle()&lt;/div&gt;&lt;div&gt;+ sélectionnerMembre()&lt;/div&gt;&lt;div&gt;&lt;br&gt;&lt;/div&gt;" style="text;strokeColor=none;fillColor=none;align=left;verticalAlign=top;spacingLeft=4;spacingRight=4;overflow=hidden;rotatable=0;points=[[0,0.5],[1,0.5]];portConstraint=eastwest;whiteSpace=wrap;html=1;" parent="8SyGIkeXO50UrZGaKce9-5" vertex="1">
          <mxGeometry y="70" width="160" height="70" as="geometry" />
        </mxCell>
        <mxCell id="8SyGIkeXO50UrZGaKce9-9" value="Admin" style="swimlane;fontStyle=1;align=center;verticalAlign=top;childLayout=stackLayout;horizontal=1;startSize=26;horizontalStack=0;resizeParent=1;resizeParentMax=0;resizeLast=0;collapsible=1;marginBottom=0;whiteSpace=wrap;html=1;" parent="1" vertex="1">
          <mxGeometry x="590" y="250" width="140" height="140" as="geometry" />
        </mxCell>
        <mxCell id="8SyGIkeXO50UrZGaKce9-10" value="&lt;br&gt;&lt;div&gt;&lt;div&gt;+ role : Admin&lt;/div&gt;&lt;div&gt;&lt;br&gt;&lt;/div&gt;&lt;/div&gt;" style="text;strokeColor=none;fillColor=none;align=left;verticalAlign=top;spacingLeft=4;spacingRight=4;overflow=hidden;rotatable=0;points=[[0,0.5],[1,0.5]];portConstraint=eastwest;whiteSpace=wrap;html=1;" parent="8SyGIkeXO50UrZGaKce9-9" vertex="1">
          <mxGeometry y="26" width="140" height="44" as="geometry" />
        </mxCell>
        <mxCell id="8SyGIkeXO50UrZGaKce9-11" value="" style="line;strokeWidth=1;fillColor=none;align=left;verticalAlign=middle;spacingTop=-1;spacingLeft=3;spacingRight=3;rotatable=0;labelPosition=right;points=[];portConstraint=eastwest;strokeColor=inherit;" parent="8SyGIkeXO50UrZGaKce9-9" vertex="1">
          <mxGeometry y="70" width="140" height="30" as="geometry" />
        </mxCell>
        <mxCell id="8SyGIkeXO50UrZGaKce9-12" value="&lt;div&gt;&lt;br&gt;&lt;/div&gt;+ crudMembre(membre)" style="text;strokeColor=none;fillColor=none;align=left;verticalAlign=top;spacingLeft=4;spacingRight=4;overflow=hidden;rotatable=0;points=[[0,0.5],[1,0.5]];portConstraint=eastwest;whiteSpace=wrap;html=1;" parent="8SyGIkeXO50UrZGaKce9-9" vertex="1">
          <mxGeometry y="100" width="140" height="40" as="geometry" />
        </mxCell>
        <mxCell id="8SyGIkeXO50UrZGaKce9-14" value="Spectacle" style="swimlane;fontStyle=1;align=center;verticalAlign=top;childLayout=stackLayout;horizontal=1;startSize=26;horizontalStack=0;resizeParent=1;resizeParentMax=0;resizeLast=0;collapsible=1;marginBottom=0;whiteSpace=wrap;html=1;" parent="1" vertex="1">
          <mxGeometry x="40" y="100" width="160" height="130" as="geometry" />
        </mxCell>
        <mxCell id="8SyGIkeXO50UrZGaKce9-15" value="&lt;div&gt;+ nom: String&lt;/div&gt;+ date: Date&lt;div&gt;+ nombreJoueurs: Number&lt;br&gt;&lt;div&gt;+ lieux: String&lt;/div&gt;&lt;div&gt;+ description: String&lt;/div&gt;&lt;div&gt;+ roles : Object&lt;/div&gt;&lt;div&gt;&lt;br&gt;&lt;/div&gt;&lt;/div&gt;" style="text;strokeColor=none;fillColor=none;align=left;verticalAlign=top;spacingLeft=4;spacingRight=4;overflow=hidden;rotatable=0;points=[[0,0.5],[1,0.5]];portConstraint=eastwest;whiteSpace=wrap;html=1;" parent="8SyGIkeXO50UrZGaKce9-14" vertex="1">
          <mxGeometry y="26" width="160" height="104" as="geometry" />
        </mxCell>
        <mxCell id="8SyGIkeXO50UrZGaKce9-18" value="Atelier" style="swimlane;fontStyle=1;align=center;verticalAlign=top;childLayout=stackLayout;horizontal=1;startSize=26;horizontalStack=0;resizeParent=1;resizeParentMax=0;resizeLast=0;collapsible=1;marginBottom=0;whiteSpace=wrap;html=1;" parent="1" vertex="1">
          <mxGeometry x="30" y="370" width="170" height="130" as="geometry" />
        </mxCell>
        <mxCell id="8SyGIkeXO50UrZGaKce9-19" value="+ date: String&lt;div&gt;+ nombreParticipant: Number&lt;br&gt;&lt;div&gt;+ lieux: Date&lt;/div&gt;&lt;div&gt;+ description: Date&lt;/div&gt;&lt;div&gt;+ coach: ResPed&lt;/div&gt;&lt;div&gt;+ participants : [Membre]&lt;/div&gt;&lt;div&gt;&lt;br&gt;&lt;/div&gt;&lt;/div&gt;" style="text;strokeColor=none;fillColor=none;align=left;verticalAlign=top;spacingLeft=4;spacingRight=4;overflow=hidden;rotatable=0;points=[[0,0.5],[1,0.5]];portConstraint=eastwest;whiteSpace=wrap;html=1;" parent="8SyGIkeXO50UrZGaKce9-18" vertex="1">
          <mxGeometry y="26" width="170" height="104" as="geometry" />
        </mxCell>
        <mxCell id="8SyGIkeXO50UrZGaKce9-21" value="" style="endArrow=none;html=1;edgeStyle=orthogonalEdgeStyle;rounded=0;exitX=1;exitY=0.5;exitDx=0;exitDy=0;entryX=-0.016;entryY=0.831;entryDx=0;entryDy=0;entryPerimeter=0;" parent="1" source="8SyGIkeXO50UrZGaKce9-34" target="8SyGIkeXO50UrZGaKce9-2" edge="1">
          <mxGeometry relative="1" as="geometry">
            <mxPoint x="330" y="280" as="sourcePoint" />
            <mxPoint x="490" y="280" as="targetPoint" />
          </mxGeometry>
        </mxCell>
        <mxCell id="8SyGIkeXO50UrZGaKce9-23" value="1.n" style="edgeLabel;resizable=0;html=1;align=right;verticalAlign=bottom;" parent="8SyGIkeXO50UrZGaKce9-21" connectable="0" vertex="1">
          <mxGeometry x="1" relative="1" as="geometry" />
        </mxCell>
        <mxCell id="8SyGIkeXO50UrZGaKce9-24" value="" style="endArrow=none;html=1;edgeStyle=orthogonalEdgeStyle;rounded=0;exitX=1;exitY=0.5;exitDx=0;exitDy=0;entryX=0;entryY=0.5;entryDx=0;entryDy=0;" parent="1" source="8SyGIkeXO50UrZGaKce9-29" target="8SyGIkeXO50UrZGaKce9-6" edge="1">
          <mxGeometry relative="1" as="geometry">
            <mxPoint x="320" y="419" as="sourcePoint" />
            <mxPoint x="447" y="330" as="targetPoint" />
          </mxGeometry>
        </mxCell>
        <mxCell id="8SyGIkeXO50UrZGaKce9-26" value="1" style="edgeLabel;resizable=0;html=1;align=right;verticalAlign=bottom;" parent="8SyGIkeXO50UrZGaKce9-24" connectable="0" vertex="1">
          <mxGeometry x="1" relative="1" as="geometry" />
        </mxCell>
        <mxCell id="8SyGIkeXO50UrZGaKce9-35" value="" style="endArrow=none;html=1;edgeStyle=orthogonalEdgeStyle;rounded=0;exitX=1;exitY=0.5;exitDx=0;exitDy=0;entryX=-0.016;entryY=0.831;entryDx=0;entryDy=0;entryPerimeter=0;" parent="1" source="8SyGIkeXO50UrZGaKce9-15" target="8SyGIkeXO50UrZGaKce9-34" edge="1">
          <mxGeometry relative="1" as="geometry">
            <mxPoint x="210" y="168" as="sourcePoint" />
            <mxPoint x="357" y="109" as="targetPoint" />
          </mxGeometry>
        </mxCell>
        <mxCell id="8SyGIkeXO50UrZGaKce9-36" value="6..n" style="edgeLabel;resizable=0;html=1;align=left;verticalAlign=bottom;" parent="8SyGIkeXO50UrZGaKce9-35" connectable="0" vertex="1">
          <mxGeometry x="-1" relative="1" as="geometry" />
        </mxCell>
        <mxCell id="8SyGIkeXO50UrZGaKce9-34" value="Participer" style="text;html=1;whiteSpace=wrap;strokeColor=none;fillColor=none;align=center;verticalAlign=middle;rounded=0;" parent="1" vertex="1">
          <mxGeometry x="270" y="120" width="60" height="30" as="geometry" />
        </mxCell>
        <mxCell id="8SyGIkeXO50UrZGaKce9-41" value="" style="endArrow=none;html=1;edgeStyle=orthogonalEdgeStyle;rounded=0;exitX=1;exitY=0.5;exitDx=0;exitDy=0;entryX=0;entryY=0.5;entryDx=0;entryDy=0;" parent="1" source="8SyGIkeXO50UrZGaKce9-19" target="8SyGIkeXO50UrZGaKce9-29" edge="1">
          <mxGeometry relative="1" as="geometry">
            <mxPoint x="200" y="438" as="sourcePoint" />
            <mxPoint x="280" y="558" as="targetPoint" />
          </mxGeometry>
        </mxCell>
        <mxCell id="8SyGIkeXO50UrZGaKce9-42" value="0..n" style="edgeLabel;resizable=0;html=1;align=left;verticalAlign=bottom;" parent="8SyGIkeXO50UrZGaKce9-41" connectable="0" vertex="1">
          <mxGeometry x="-1" relative="1" as="geometry" />
        </mxCell>
        <mxCell id="8SyGIkeXO50UrZGaKce9-29" value="Organiser" style="text;html=1;whiteSpace=wrap;strokeColor=none;fillColor=none;align=center;verticalAlign=middle;rounded=0;" parent="1" vertex="1">
          <mxGeometry x="240" y="470" width="60" height="30" as="geometry" />
        </mxCell>
        <mxCell id="8SyGIkeXO50UrZGaKce9-44" value="" style="endArrow=none;html=1;edgeStyle=orthogonalEdgeStyle;rounded=0;exitX=0.588;exitY=0;exitDx=0;exitDy=0;exitPerimeter=0;" parent="1" source="8SyGIkeXO50UrZGaKce9-47" edge="1">
          <mxGeometry relative="1" as="geometry">
            <mxPoint x="330" y="300" as="sourcePoint" />
            <mxPoint x="450" y="240" as="targetPoint" />
          </mxGeometry>
        </mxCell>
        <mxCell id="8SyGIkeXO50UrZGaKce9-46" value="1..n" style="edgeLabel;resizable=0;html=1;align=right;verticalAlign=bottom;" parent="8SyGIkeXO50UrZGaKce9-44" connectable="0" vertex="1">
          <mxGeometry x="1" relative="1" as="geometry">
            <mxPoint y="20" as="offset" />
          </mxGeometry>
        </mxCell>
        <mxCell id="8SyGIkeXO50UrZGaKce9-48" value="" style="endArrow=none;html=1;edgeStyle=orthogonalEdgeStyle;rounded=0;exitX=0.588;exitY=0;exitDx=0;exitDy=0;exitPerimeter=0;" parent="1" source="8SyGIkeXO50UrZGaKce9-18" target="8SyGIkeXO50UrZGaKce9-47" edge="1">
          <mxGeometry relative="1" as="geometry">
            <mxPoint x="130" y="370" as="sourcePoint" />
            <mxPoint x="440" y="200" as="targetPoint" />
          </mxGeometry>
        </mxCell>
        <mxCell id="8SyGIkeXO50UrZGaKce9-49" value="1..n" style="edgeLabel;resizable=0;html=1;align=left;verticalAlign=bottom;" parent="8SyGIkeXO50UrZGaKce9-48" connectable="0" vertex="1">
          <mxGeometry x="-1" relative="1" as="geometry" />
        </mxCell>
        <mxCell id="8SyGIkeXO50UrZGaKce9-47" value="Participer" style="text;html=1;whiteSpace=wrap;strokeColor=none;fillColor=none;align=center;verticalAlign=middle;rounded=0;" parent="1" vertex="1">
          <mxGeometry x="250" y="270" width="60" height="30" as="geometry" />
        </mxCell>
        <mxCell id="8SyGIkeXO50UrZGaKce9-59" value="SpectacleType" style="swimlane;fontStyle=1;align=center;verticalAlign=top;childLayout=stackLayout;horizontal=1;startSize=26;horizontalStack=0;resizeParent=1;resizeParentMax=0;resizeLast=0;collapsible=1;marginBottom=0;whiteSpace=wrap;html=1;" parent="1" vertex="1">
          <mxGeometry x="-290" y="300" width="160" height="130" as="geometry" />
        </mxCell>
        <mxCell id="8SyGIkeXO50UrZGaKce9-60" value="&lt;div&gt;+ nom: String&lt;/div&gt;&lt;div&gt;+ nombreJoueurs: Date&lt;br&gt;&lt;div&gt;+ lieux: Date&lt;/div&gt;&lt;div&gt;+ roles : Object&lt;/div&gt;&lt;div&gt;&lt;br&gt;&lt;/div&gt;&lt;/div&gt;" style="text;strokeColor=none;fillColor=none;align=left;verticalAlign=top;spacingLeft=4;spacingRight=4;overflow=hidden;rotatable=0;points=[[0,0.5],[1,0.5]];portConstraint=eastwest;whiteSpace=wrap;html=1;" parent="8SyGIkeXO50UrZGaKce9-59" vertex="1">
          <mxGeometry y="26" width="160" height="104" as="geometry" />
        </mxCell>
        <mxCell id="8SyGIkeXO50UrZGaKce9-62" value="" style="endArrow=none;html=1;edgeStyle=orthogonalEdgeStyle;rounded=0;exitX=1;exitY=0.5;exitDx=0;exitDy=0;entryX=0;entryY=0.5;entryDx=0;entryDy=0;" parent="1" source="8SyGIkeXO50UrZGaKce9-65" target="8SyGIkeXO50UrZGaKce9-15" edge="1">
          <mxGeometry relative="1" as="geometry">
            <mxPoint x="-20" y="310" as="sourcePoint" />
            <mxPoint x="140" y="310" as="targetPoint" />
          </mxGeometry>
        </mxCell>
        <mxCell id="8SyGIkeXO50UrZGaKce9-64" value="1" style="edgeLabel;resizable=0;html=1;align=right;verticalAlign=bottom;" parent="8SyGIkeXO50UrZGaKce9-62" connectable="0" vertex="1">
          <mxGeometry x="1" relative="1" as="geometry" />
        </mxCell>
        <mxCell id="8SyGIkeXO50UrZGaKce9-66" value="" style="endArrow=none;html=1;edgeStyle=orthogonalEdgeStyle;rounded=0;exitX=1;exitY=0.5;exitDx=0;exitDy=0;entryX=0;entryY=0.5;entryDx=0;entryDy=0;" parent="1" source="8SyGIkeXO50UrZGaKce9-60" target="8SyGIkeXO50UrZGaKce9-65" edge="1">
          <mxGeometry relative="1" as="geometry">
            <mxPoint x="-90" y="228" as="sourcePoint" />
            <mxPoint x="40" y="178" as="targetPoint" />
          </mxGeometry>
        </mxCell>
        <mxCell id="8SyGIkeXO50UrZGaKce9-67" value="0..n" style="edgeLabel;resizable=0;html=1;align=left;verticalAlign=bottom;" parent="8SyGIkeXO50UrZGaKce9-66" connectable="0" vertex="1">
          <mxGeometry x="-1" relative="1" as="geometry" />
        </mxCell>
        <mxCell id="8SyGIkeXO50UrZGaKce9-65" value="Etre" style="text;html=1;whiteSpace=wrap;strokeColor=none;fillColor=none;align=center;verticalAlign=middle;rounded=0;" parent="1" vertex="1">
          <mxGeometry x="-80" y="210" width="60" height="30" as="geometry" />
        </mxCell>
        <mxCell id="6J-9KxCwJsjVHun6cBvc-1" value="Invitations" style="swimlane;fontStyle=1;align=center;verticalAlign=top;childLayout=stackLayout;horizontal=1;startSize=26;horizontalStack=0;resizeParent=1;resizeParentMax=0;resizeLast=0;collapsible=1;marginBottom=0;whiteSpace=wrap;html=1;" vertex="1" parent="1">
          <mxGeometry x="110" y="-220" width="180" height="90" as="geometry" />
        </mxCell>
        <mxCell id="6J-9KxCwJsjVHun6cBvc-2" value="+ userId: int&lt;div&gt;+ token: String&lt;br&gt;&lt;div&gt;+ used: Boolean&lt;/div&gt;&lt;div&gt;&lt;br&gt;&lt;/div&gt;&lt;/div&gt;" style="text;strokeColor=none;fillColor=none;align=left;verticalAlign=top;spacingLeft=4;spacingRight=4;overflow=hidden;rotatable=0;points=[[0,0.5],[1,0.5]];portConstraint=eastwest;whiteSpace=wrap;html=1;" vertex="1" parent="6J-9KxCwJsjVHun6cBvc-1">
          <mxGeometry y="26" width="180" height="64" as="geometry" />
        </mxCell>
        <mxCell id="6J-9KxCwJsjVHun6cBvc-6" value="" style="endArrow=none;html=1;edgeStyle=orthogonalEdgeStyle;rounded=0;entryX=0.5;entryY=0;entryDx=0;entryDy=0;" edge="1" parent="1" source="6J-9KxCwJsjVHun6cBvc-9" target="8SyGIkeXO50UrZGaKce9-1">
          <mxGeometry relative="1" as="geometry">
            <mxPoint x="290" y="-140" as="sourcePoint" />
            <mxPoint x="450" y="-140" as="targetPoint" />
            <Array as="points" />
          </mxGeometry>
        </mxCell>
        <mxCell id="6J-9KxCwJsjVHun6cBvc-8" value="1" style="edgeLabel;resizable=0;html=1;align=right;verticalAlign=bottom;" connectable="0" vertex="1" parent="6J-9KxCwJsjVHun6cBvc-6">
          <mxGeometry x="1" relative="1" as="geometry">
            <mxPoint x="-10" as="offset" />
          </mxGeometry>
        </mxCell>
        <mxCell id="6J-9KxCwJsjVHun6cBvc-10" value="" style="endArrow=none;html=1;edgeStyle=orthogonalEdgeStyle;rounded=0;entryX=0.5;entryY=0;entryDx=0;entryDy=0;" edge="1" parent="1" target="6J-9KxCwJsjVHun6cBvc-9">
          <mxGeometry relative="1" as="geometry">
            <mxPoint x="290" y="-140" as="sourcePoint" />
            <mxPoint x="450" y="20" as="targetPoint" />
            <Array as="points" />
          </mxGeometry>
        </mxCell>
        <mxCell id="6J-9KxCwJsjVHun6cBvc-11" value="1" style="edgeLabel;resizable=0;html=1;align=left;verticalAlign=bottom;" connectable="0" vertex="1" parent="6J-9KxCwJsjVHun6cBvc-10">
          <mxGeometry x="-1" relative="1" as="geometry">
            <mxPoint x="10" as="offset" />
          </mxGeometry>
        </mxCell>
        <mxCell id="6J-9KxCwJsjVHun6cBvc-9" value="Accepte" style="text;html=1;whiteSpace=wrap;strokeColor=none;fillColor=none;align=center;verticalAlign=middle;rounded=0;" vertex="1" parent="1">
          <mxGeometry x="414" y="-150" width="60" height="30" as="geometry" />
        </mxCell>
        <mxCell id="6J-9KxCwJsjVHun6cBvc-13" value="" style="endArrow=none;html=1;edgeStyle=orthogonalEdgeStyle;rounded=0;exitX=0.75;exitY=0;exitDx=0;exitDy=0;entryX=1;entryY=0.25;entryDx=0;entryDy=0;" edge="1" parent="1" source="6J-9KxCwJsjVHun6cBvc-16" target="6J-9KxCwJsjVHun6cBvc-1">
          <mxGeometry relative="1" as="geometry">
            <mxPoint x="210" y="170" as="sourcePoint" />
            <mxPoint x="370" y="170" as="targetPoint" />
          </mxGeometry>
        </mxCell>
        <mxCell id="6J-9KxCwJsjVHun6cBvc-15" value="1" style="edgeLabel;resizable=0;html=1;align=right;verticalAlign=bottom;" connectable="0" vertex="1" parent="6J-9KxCwJsjVHun6cBvc-13">
          <mxGeometry x="1" relative="1" as="geometry">
            <mxPoint x="10" as="offset" />
          </mxGeometry>
        </mxCell>
        <mxCell id="6J-9KxCwJsjVHun6cBvc-26" value="" style="endArrow=none;html=1;edgeStyle=orthogonalEdgeStyle;rounded=0;exitX=0.75;exitY=0;exitDx=0;exitDy=0;entryX=1;entryY=0.25;entryDx=0;entryDy=0;" edge="1" parent="1" source="8SyGIkeXO50UrZGaKce9-9" target="6J-9KxCwJsjVHun6cBvc-16">
          <mxGeometry relative="1" as="geometry">
            <mxPoint x="650" y="230" as="sourcePoint" />
            <mxPoint x="290" y="-197" as="targetPoint" />
          </mxGeometry>
        </mxCell>
        <mxCell id="6J-9KxCwJsjVHun6cBvc-27" value="0..n" style="edgeLabel;resizable=0;html=1;align=left;verticalAlign=bottom;" connectable="0" vertex="1" parent="6J-9KxCwJsjVHun6cBvc-26">
          <mxGeometry x="-1" relative="1" as="geometry" />
        </mxCell>
        <mxCell id="6J-9KxCwJsjVHun6cBvc-16" value="Créer" style="text;html=1;whiteSpace=wrap;strokeColor=none;fillColor=none;align=center;verticalAlign=middle;rounded=0;" vertex="1" parent="1">
          <mxGeometry x="480" y="-210" width="60" height="30" as="geometry" />
        </mxCell>
        <mxCell id="6J-9KxCwJsjVHun6cBvc-29" value="Extends" style="endArrow=block;endSize=16;endFill=0;html=1;rounded=0;exitX=0.999;exitY=0.984;exitDx=0;exitDy=0;exitPerimeter=0;entryX=0.5;entryY=0;entryDx=0;entryDy=0;" edge="1" parent="1" source="8SyGIkeXO50UrZGaKce9-2" target="8SyGIkeXO50UrZGaKce9-9">
          <mxGeometry width="160" relative="1" as="geometry">
            <mxPoint x="390" y="340" as="sourcePoint" />
            <mxPoint x="550" y="340" as="targetPoint" />
          </mxGeometry>
        </mxCell>
        <mxCell id="6J-9KxCwJsjVHun6cBvc-30" value="Extends" style="endArrow=block;endSize=16;endFill=0;html=1;rounded=0;exitX=0.639;exitY=1.05;exitDx=0;exitDy=0;entryX=0.5;entryY=0;entryDx=0;entryDy=0;exitPerimeter=0;" edge="1" parent="1" source="8SyGIkeXO50UrZGaKce9-4" target="8SyGIkeXO50UrZGaKce9-5">
          <mxGeometry width="160" relative="1" as="geometry">
            <mxPoint x="390" y="370" as="sourcePoint" />
            <mxPoint x="550" y="370" as="targetPoint" />
          </mxGeometry>
        </mxCell>
      </root>
    </mxGraphModel>
  </diagram>
</mxfile>
